<svg xmlns="http://www.w3.org/2000/svg" xmlns:xlink="http://www.w3.org/1999/xlink" width="200" zoomAndPan="magnify" viewBox="0 0 150 154.499995" height="206" preserveAspectRatio="xMidYMid meet" version="1.0"><defs><filter x="0%" y="0%" width="100%" height="100%" id="981581c19b"><feColorMatrix values="0 0 0 0 1 0 0 0 0 1 0 0 0 0 1 0 0 0 1 0" color-interpolation-filters="sRGB"/></filter><clipPath id="f08bed791d"><path d="M 0.242188 4 L 149.757812 4 L 149.757812 154 L 0.242188 154 Z M 0.242188 4 " clip-rule="nonzero"/></clipPath><mask id="c424830a01"><g filter="url(#981581c19b)"><rect x="-15" width="180" fill="#000000" y="-15.45" height="185.399994" fill-opacity="0.62"/></g></mask><clipPath id="4f5d485ad0"><path d="M 92 39 L 115 39 L 115 61 L 92 61 Z M 92 39 " clip-rule="nonzero"/></clipPath><clipPath id="1d738a92fa"><path d="M 99.933594 47.425781 C 100.808594 53.414062 105.195312 58.414062 111.1875 59.914062 L 111.777344 60.058594 C 111.980469 60.113281 112.183594 60.132812 112.382812 60.132812 C 113.496094 60.132812 114.515625 59.375 114.796875 58.246094 C 115.128906 56.910156 114.316406 55.554688 112.980469 55.226562 L 112.394531 55.078125 C 108.613281 54.132812 105.78125 51.105469 104.972656 47.402344 C 107.324219 46.914062 109.484375 45.761719 111.222656 44.027344 C 112.195312 43.050781 112.195312 41.472656 111.222656 40.503906 C 110.25 39.527344 108.671875 39.527344 107.699219 40.503906 C 104.875 43.324219 99.953125 43.324219 97.128906 40.503906 C 96.152344 39.527344 94.578125 39.527344 93.605469 40.503906 C 92.628906 41.472656 92.628906 43.050781 93.605469 44.027344 C 95.359375 45.78125 97.550781 46.945312 99.933594 47.425781 Z M 99.933594 47.425781 " clip-rule="nonzero"/></clipPath><clipPath id="31eb266b59"><path d="M 62 95 L 78 95 L 78 115 L 62 115 Z M 62 95 " clip-rule="nonzero"/></clipPath><clipPath id="f350d2be81"><path d="M 70.015625 95.019531 C 65.894531 95.019531 62.539062 98.375 62.539062 102.496094 L 62.539062 112.464844 C 62.539062 113.839844 63.652344 114.957031 65.03125 114.957031 C 66.410156 114.957031 67.523438 113.839844 67.523438 112.464844 L 67.523438 109.972656 L 72.507812 109.972656 L 72.507812 112.464844 C 72.507812 113.839844 73.621094 114.957031 75 114.957031 C 76.378906 114.957031 77.492188 113.839844 77.492188 112.464844 L 77.492188 102.496094 C 77.492188 98.375 74.136719 95.019531 70.015625 95.019531 Z M 67.523438 104.988281 L 67.523438 102.496094 C 67.523438 101.125 68.640625 100.003906 70.015625 100.003906 C 71.390625 100.003906 72.507812 101.125 72.507812 102.496094 L 72.507812 104.988281 Z M 67.523438 104.988281 " clip-rule="nonzero"/></clipPath><clipPath id="c07fdeba92"><path d="M 82 95 L 88 95 L 88 115 L 82 115 Z M 82 95 " clip-rule="nonzero"/></clipPath><clipPath id="f14b6d2e77"><path d="M 84.96875 95.019531 C 83.589844 95.019531 82.476562 96.136719 82.476562 97.511719 L 82.476562 112.464844 C 82.476562 113.839844 83.589844 114.957031 84.96875 114.957031 C 86.347656 114.957031 87.460938 113.839844 87.460938 112.464844 L 87.460938 97.511719 C 87.460938 96.136719 86.347656 95.019531 84.96875 95.019531 Z M 84.96875 95.019531 " clip-rule="nonzero"/></clipPath><clipPath id="a9c72f4add"><path d="M 0.242188 0.328125 L 149.757812 0.328125 L 149.757812 149.84375 L 0.242188 149.84375 Z M 0.242188 0.328125 " clip-rule="nonzero"/></clipPath><clipPath id="f6f71ba11c"><path d="M 142.28125 119.941406 C 139.039062 119.941406 136.296875 122.03125 135.265625 124.925781 L 118.609375 124.925781 L 111.878906 115.953125 C 111.410156 115.324219 110.667969 114.957031 109.886719 114.957031 L 97.425781 114.957031 L 97.425781 109.972656 L 120.3125 109.972656 C 121.34375 112.867188 124.085938 114.957031 127.332031 114.957031 C 131.453125 114.957031 134.804688 111.601562 134.804688 107.480469 C 134.804688 103.359375 131.453125 100.003906 127.332031 100.003906 C 124.085938 100.003906 121.34375 102.097656 120.3125 104.988281 L 97.425781 104.988281 L 97.425781 100.003906 L 117.363281 100.003906 C 118.144531 100.003906 118.886719 99.636719 119.355469 99.007812 L 126.085938 90.039062 L 130.28125 90.039062 C 131.3125 92.929688 134.054688 95.019531 137.296875 95.019531 C 141.421875 95.019531 144.773438 91.667969 144.773438 87.546875 C 144.773438 84.300781 142.683594 81.558594 139.789062 80.527344 L 139.789062 70.855469 L 144.355469 64.007812 C 144.628906 63.601562 144.773438 63.117188 144.773438 62.625 L 144.773438 49.707031 C 147.667969 48.675781 149.757812 45.933594 149.757812 42.691406 C 149.757812 39.445312 147.667969 36.703125 144.773438 35.671875 L 144.773438 15.28125 C 144.773438 13.902344 143.660156 12.789062 142.28125 12.789062 L 132.316406 12.789062 C 131.480469 12.789062 130.703125 13.203125 130.242188 13.894531 L 125.996094 20.261719 L 116.90625 20.261719 C 115.925781 17.515625 113.398438 15.523438 110.367188 15.328125 C 107.558594 10.425781 102.234375 7.425781 96.398438 7.839844 C 94.46875 3.324219 90.046875 0.328125 84.96875 0.328125 C 80.878906 0.328125 77.273438 2.335938 75 5.390625 C 72.726562 2.335938 69.121094 0.328125 65.03125 0.328125 C 59.953125 0.328125 55.53125 3.324219 53.601562 7.84375 C 44.914062 7.214844 37.621094 14.171875 37.621094 22.753906 C 37.621094 23.042969 37.632812 23.332031 37.652344 23.628906 C 34.195312 24.839844 31.332031 27.300781 29.566406 30.511719 C 28.953125 30.34375 28.320312 30.230469 27.652344 30.230469 C 24.410156 30.230469 21.667969 32.320312 20.636719 35.214844 L 7.71875 35.214844 C 6.339844 35.214844 5.226562 36.332031 5.226562 37.707031 L 5.226562 57.640625 C 5.226562 58.109375 5.359375 58.566406 5.605469 58.964844 L 21.910156 85.054688 L 14.734375 85.054688 C 13.703125 82.160156 10.960938 80.070312 7.71875 80.070312 C 3.597656 80.070312 0.242188 83.421875 0.242188 87.546875 C 0.242188 91.667969 3.597656 95.019531 7.71875 95.019531 C 10.960938 95.019531 13.703125 92.929688 14.734375 90.039062 L 25.027344 90.039062 L 30.523438 98.832031 C 30.980469 99.5625 31.777344 100.003906 32.636719 100.003906 L 52.574219 100.003906 L 52.574219 104.988281 L 29.6875 104.988281 C 28.65625 102.097656 25.914062 100.003906 22.667969 100.003906 C 18.546875 100.003906 15.195312 103.359375 15.195312 107.480469 C 15.195312 111.601562 18.546875 114.957031 22.667969 114.957031 C 25.914062 114.957031 28.65625 112.867188 29.6875 109.972656 L 52.574219 109.972656 L 52.574219 114.957031 L 40.113281 114.957031 C 39.332031 114.957031 38.589844 115.324219 38.121094 115.953125 L 31.390625 124.925781 L 14.734375 124.925781 C 13.703125 122.03125 10.960938 119.941406 7.71875 119.941406 C 3.597656 119.941406 0.242188 123.292969 0.242188 127.417969 C 0.242188 131.539062 3.597656 134.890625 7.71875 134.890625 C 10.960938 134.890625 13.703125 132.800781 14.734375 129.910156 L 32.636719 129.910156 C 33.417969 129.910156 34.160156 129.539062 34.628906 128.910156 L 41.359375 119.941406 L 52.574219 119.941406 C 52.574219 124.0625 55.925781 127.417969 60.046875 127.417969 L 60.046875 133.207031 L 49.15625 137.5625 C 47.878906 138.078125 47.253906 139.523438 47.765625 140.804688 C 48.15625 141.773438 49.09375 142.367188 50.082031 142.367188 C 50.390625 142.367188 50.703125 142.3125 51.003906 142.1875 L 63.464844 137.203125 C 64.410156 136.824219 65.03125 135.910156 65.03125 134.890625 L 65.03125 127.417969 L 72.507812 127.417969 L 72.507812 135.351562 C 69.613281 136.382812 67.523438 139.125 67.523438 142.367188 C 67.523438 146.488281 70.878906 149.84375 75 149.84375 C 79.121094 149.84375 82.476562 146.488281 82.476562 142.367188 C 82.476562 139.125 80.386719 136.382812 77.492188 135.351562 L 77.492188 127.417969 L 84.96875 127.417969 L 84.96875 134.890625 C 84.96875 136.109375 85.851562 137.148438 87.050781 137.347656 L 99.917969 139.496094 L 99.917969 147.351562 C 99.917969 148.726562 101.035156 149.84375 102.410156 149.84375 C 103.789062 149.84375 104.902344 148.726562 104.902344 147.351562 L 104.902344 137.382812 C 104.902344 136.164062 104.019531 135.125 102.820312 134.925781 L 89.953125 132.78125 L 89.953125 127.417969 C 94.074219 127.417969 97.425781 124.0625 97.425781 119.941406 L 108.640625 119.941406 L 115.371094 128.910156 C 115.835938 129.539062 116.578125 129.910156 117.363281 129.910156 L 135.265625 129.910156 C 136.296875 132.800781 139.039062 134.890625 142.28125 134.890625 C 146.402344 134.890625 149.757812 131.539062 149.757812 127.417969 C 149.757812 123.292969 146.402344 119.941406 142.28125 119.941406 Z M 127.332031 104.988281 C 128.707031 104.988281 129.824219 106.109375 129.824219 107.480469 C 129.824219 108.855469 128.707031 109.972656 127.332031 109.972656 C 125.957031 109.972656 124.839844 108.855469 124.839844 107.480469 C 124.839844 106.109375 125.957031 104.988281 127.332031 104.988281 Z M 7.71875 90.039062 C 6.34375 90.039062 5.226562 88.917969 5.226562 87.546875 C 5.226562 86.171875 6.34375 85.054688 7.71875 85.054688 C 9.09375 85.054688 10.210938 86.171875 10.210938 87.546875 C 10.210938 88.917969 9.09375 90.039062 7.71875 90.039062 Z M 22.667969 109.972656 C 21.292969 109.972656 20.175781 108.855469 20.175781 107.480469 C 20.175781 106.109375 21.292969 104.988281 22.667969 104.988281 C 24.042969 104.988281 25.160156 106.109375 25.160156 107.480469 C 25.160156 108.855469 24.042969 109.972656 22.667969 109.972656 Z M 7.71875 129.910156 C 6.34375 129.910156 5.226562 128.789062 5.226562 127.417969 C 5.226562 126.042969 6.34375 124.925781 7.71875 124.925781 C 9.09375 124.925781 10.210938 126.042969 10.210938 127.417969 C 10.210938 128.789062 9.09375 129.910156 7.71875 129.910156 Z M 75 144.859375 C 73.625 144.859375 72.507812 143.742188 72.507812 142.367188 C 72.507812 140.996094 73.625 139.875 75 139.875 C 76.375 139.875 77.492188 140.996094 77.492188 142.367188 C 77.492188 143.742188 76.375 144.859375 75 144.859375 Z M 89.953125 60.132812 C 88.574219 60.132812 87.460938 59.015625 87.460938 57.640625 C 87.460938 56.269531 88.574219 55.148438 89.953125 55.148438 C 91.328125 55.148438 92.445312 56.269531 92.445312 57.640625 C 92.445312 59.015625 91.328125 60.132812 89.953125 60.132812 Z M 91.066406 74.824219 C 91.910156 74.402344 92.445312 73.539062 92.445312 72.59375 L 92.445312 70.558594 C 95.203125 71.542969 97.199219 74.085938 97.382812 77.128906 C 95.769531 78.613281 94.496094 80.503906 93.839844 82.757812 C 93.753906 83.054688 93.742188 83.351562 93.765625 83.640625 C 92.644531 82.96875 91.347656 82.5625 89.953125 82.5625 L 87.460938 82.5625 L 87.460938 76.625 Z M 137.296875 90.039062 C 135.921875 90.039062 134.804688 88.917969 134.804688 87.546875 C 134.804688 86.171875 135.921875 85.054688 137.296875 85.054688 C 138.675781 85.054688 139.789062 86.171875 139.789062 87.546875 C 139.789062 88.917969 138.675781 90.039062 137.296875 90.039062 Z M 142.28125 45.183594 C 140.90625 45.183594 139.789062 44.0625 139.789062 42.691406 C 139.789062 41.316406 140.90625 40.199219 142.28125 40.199219 C 143.65625 40.199219 144.773438 41.316406 144.773438 42.691406 C 144.773438 44.0625 143.65625 45.183594 142.28125 45.183594 Z M 127.332031 25.246094 C 128.164062 25.246094 128.941406 24.832031 129.402344 24.136719 L 133.648438 17.769531 L 139.789062 17.769531 L 139.789062 35.671875 C 136.898438 36.703125 134.804688 39.445312 134.804688 42.691406 C 134.804688 45.933594 136.898438 48.675781 139.789062 49.707031 L 139.789062 61.875 L 135.226562 68.722656 C 134.953125 69.128906 134.804688 69.609375 134.804688 70.101562 L 134.804688 80.527344 C 132.695312 81.28125 131.035156 82.941406 130.28125 85.054688 L 124.839844 85.054688 C 124.054688 85.054688 123.316406 85.421875 122.84375 86.050781 L 116.117188 95.019531 L 111.039062 95.019531 C 113.3125 92.488281 114.746094 89.183594 114.863281 85.546875 C 119.460938 82.902344 122.347656 77.992188 122.347656 72.59375 C 122.347656 70.875 122.042969 69.191406 121.441406 67.566406 C 126.601562 64.433594 129.824219 58.824219 129.824219 52.660156 C 129.824219 46.925781 126.988281 41.578125 122.324219 38.335938 C 122.339844 38.132812 122.347656 37.921875 122.347656 37.707031 C 122.347656 33.0625 120.179688 28.8125 116.582031 26.019531 C 116.703125 25.769531 116.808594 25.511719 116.90625 25.246094 Z M 112.378906 22.753906 C 112.378906 24.128906 111.261719 25.246094 109.886719 25.246094 C 108.511719 25.246094 107.394531 24.128906 107.394531 22.753906 C 107.394531 21.382812 108.511719 20.261719 109.886719 20.261719 C 111.261719 20.261719 112.378906 21.382812 112.378906 22.753906 Z M 84.96875 5.3125 C 87.660156 5.3125 90.097656 6.808594 91.410156 9.0625 C 86.046875 11.410156 82.476562 16.730469 82.476562 22.753906 C 82.476562 24.128906 83.589844 25.246094 84.96875 25.246094 C 86.347656 25.246094 87.460938 24.128906 87.460938 22.753906 C 87.460938 18.167969 90.5625 14.1875 95.007812 13.082031 C 95.027344 13.078125 95.042969 13.0625 95.0625 13.054688 C 95.121094 13.046875 95.175781 13.0625 95.230469 13.050781 C 96.019531 12.875 96.738281 12.789062 97.425781 12.789062 C 100.625 12.789062 103.546875 14.324219 105.398438 16.8125 C 103.59375 18.179688 102.410156 20.324219 102.410156 22.753906 C 102.410156 23.042969 102.464844 23.316406 102.496094 23.597656 C 100.375 24.324219 98.4375 25.496094 96.8125 27.125 C 95.835938 28.097656 95.835938 29.671875 96.8125 30.648438 C 97.296875 31.132812 97.9375 31.378906 98.574219 31.378906 C 99.210938 31.378906 99.847656 31.132812 100.335938 30.648438 C 101.570312 29.417969 103.0625 28.570312 104.703125 28.121094 C 106.050781 29.421875 107.871094 30.230469 109.886719 30.230469 C 110.996094 30.230469 112.042969 29.972656 112.988281 29.535156 C 115.714844 31.375 117.363281 34.398438 117.363281 37.707031 C 117.363281 38.226562 117.277344 38.726562 117.199219 39.222656 C 117.042969 40.253906 117.539062 41.273438 118.445312 41.78125 C 122.390625 43.988281 124.839844 48.15625 124.839844 52.660156 C 124.839844 57.6875 121.84375 62.199219 117.207031 64.148438 C 117.203125 64.148438 117.203125 64.152344 117.199219 64.152344 C 112.515625 66.117188 107.164062 65.066406 103.574219 61.46875 C 102.597656 60.496094 101.023438 60.496094 100.050781 61.46875 C 99.074219 62.445312 99.074219 64.019531 100.050781 64.992188 C 103.398438 68.34375 107.835938 70.113281 112.363281 70.113281 C 113.851562 70.113281 115.347656 69.902344 116.820312 69.511719 C 117.167969 70.519531 117.363281 71.546875 117.363281 72.59375 C 117.363281 76.59375 114.984375 80.195312 111.300781 81.765625 C 110.3125 82.183594 109.707031 83.1875 109.792969 84.257812 C 109.808594 84.433594 109.832031 84.609375 109.855469 84.78125 C 109.867188 84.867188 109.886719 84.957031 109.886719 85.054688 C 109.886719 90.550781 105.417969 95.019531 99.917969 95.019531 L 97.425781 95.019531 L 97.425781 90.039062 C 97.425781 88.527344 96.96875 87.125 96.195312 85.945312 C 96.207031 85.945312 96.21875 85.949219 96.230469 85.949219 C 97.3125 85.949219 98.304688 85.242188 98.625 84.15625 C 99.777344 80.199219 103.945312 77.917969 107.894531 79.074219 C 109.230469 79.460938 110.601562 78.695312 110.984375 77.378906 C 111.371094 76.058594 110.613281 74.675781 109.292969 74.289062 C 106.796875 73.5625 104.253906 73.65625 101.953125 74.410156 C 100.75 69.867188 97.082031 66.316406 92.445312 65.371094 L 92.445312 64.660156 C 95.335938 63.628906 97.425781 60.886719 97.425781 57.640625 C 97.425781 53.519531 94.074219 50.167969 89.953125 50.167969 C 89.265625 50.167969 88.617188 50.289062 87.984375 50.464844 C 87.648438 49.574219 87.460938 48.632812 87.460938 47.675781 C 87.460938 46.300781 86.347656 45.183594 84.96875 45.183594 C 83.589844 45.183594 82.476562 46.300781 82.476562 47.675781 C 82.476562 49.65625 82.960938 51.597656 83.835938 53.367188 C 82.984375 54.578125 82.476562 56.050781 82.476562 57.640625 C 82.476562 60.886719 84.566406 63.628906 87.460938 64.660156 L 87.460938 71.054688 L 83.855469 72.859375 C 83.007812 73.277344 82.476562 74.140625 82.476562 75.085938 L 82.476562 82.5625 L 77.492188 82.5625 L 77.492188 45.773438 L 77.617188 45.519531 C 78.882812 42.988281 81.160156 41.070312 83.871094 40.257812 C 85.1875 39.855469 85.933594 38.464844 85.535156 37.152344 C 85.140625 35.832031 83.757812 35.09375 82.429688 35.484375 C 80.625 36.03125 78.960938 36.917969 77.496094 38.054688 L 77.496094 12.789062 C 77.492188 8.664062 80.847656 5.3125 84.96875 5.3125 Z M 60.046875 82.5625 C 58.652344 82.5625 57.355469 82.96875 56.234375 83.640625 C 56.257812 83.351562 56.25 83.054688 56.160156 82.757812 C 55.503906 80.5 54.226562 78.605469 52.609375 77.121094 C 52.730469 75.117188 53.625 73.308594 55.0625 72.023438 L 55.0625 72.59375 C 55.0625 73.667969 55.746094 74.621094 56.765625 74.957031 L 62.539062 76.882812 L 62.539062 82.5625 Z M 57.554688 45.183594 C 56.179688 45.183594 55.066406 44.0625 55.066406 42.691406 C 55.066406 41.316406 56.179688 40.199219 57.554688 40.199219 C 58.933594 40.199219 60.046875 41.316406 60.046875 42.691406 C 60.046875 44.0625 58.933594 45.183594 57.554688 45.183594 Z M 65.820312 72.722656 L 60.046875 70.796875 L 60.046875 60.089844 C 60.25 60.089844 60.445312 60.113281 60.652344 60.058594 C 65.386719 58.875 70.203125 61.097656 72.382812 65.457031 L 72.507812 65.707031 L 72.507812 82.5625 L 67.523438 82.5625 L 67.523438 75.085938 C 67.523438 74.011719 66.839844 73.0625 65.820312 72.722656 Z M 40.863281 27.921875 C 40.898438 27.914062 40.929688 27.886719 40.964844 27.882812 C 44.140625 27.359375 47.378906 28.386719 49.65625 30.660156 C 50.140625 31.144531 50.777344 31.390625 51.417969 31.390625 C 52.054688 31.390625 52.691406 31.144531 53.179688 30.660156 C 54.152344 29.6875 54.152344 28.109375 53.179688 27.136719 C 50.355469 24.3125 46.539062 22.789062 42.609375 22.78125 C 42.605469 22.773438 42.605469 22.761719 42.605469 22.753906 C 42.605469 17.257812 47.074219 12.789062 52.574219 12.789062 C 53.261719 12.789062 53.980469 12.875 54.765625 13.050781 C 54.824219 13.0625 54.878906 13.046875 54.933594 13.054688 C 54.953125 13.0625 54.96875 13.078125 54.988281 13.082031 C 59.4375 14.191406 62.539062 18.167969 62.539062 22.753906 C 62.539062 24.128906 63.652344 25.246094 65.03125 25.246094 C 66.410156 25.246094 67.523438 24.128906 67.523438 22.753906 C 67.523438 16.730469 63.953125 11.410156 58.589844 9.0625 C 59.902344 6.808594 62.339844 5.3125 65.03125 5.3125 C 69.152344 5.3125 72.507812 8.664062 72.507812 12.789062 L 72.507812 29.917969 C 68.96875 28.210938 64.65625 28.320312 61.15625 30.648438 C 60.011719 31.414062 59.703125 32.960938 60.46875 34.105469 C 61.230469 35.25 62.773438 35.558594 63.921875 34.796875 C 66.714844 32.933594 70.417969 33.550781 72.507812 36.089844 L 72.507812 58 C 69.058594 55.308594 64.5625 54.1875 60.046875 55.128906 L 60.046875 49.710938 C 62.941406 48.679688 65.03125 45.9375 65.03125 42.691406 C 65.03125 38.570312 61.679688 35.21875 57.554688 35.21875 C 53.589844 35.21875 50.363281 38.332031 50.125 42.238281 C 47.417969 43.222656 44.382812 42.589844 42.304688 40.503906 C 41.328125 39.527344 39.753906 39.527344 38.78125 40.503906 C 37.804688 41.472656 37.804688 43.050781 38.78125 44.027344 C 40.542969 45.789062 42.722656 46.925781 45.027344 47.410156 C 44.214844 51.109375 41.386719 54.132812 37.609375 55.078125 L 37.019531 55.226562 C 35.683594 55.554688 34.871094 56.910156 35.203125 58.246094 C 35.484375 59.375 36.503906 60.132812 37.617188 60.132812 C 37.816406 60.132812 38.019531 60.113281 38.222656 60.058594 L 38.816406 59.914062 C 44.804688 58.414062 49.195312 53.410156 50.066406 47.414062 C 50.546875 47.316406 51.023438 47.1875 51.492188 47.03125 C 52.375 48.257812 53.617188 49.191406 55.066406 49.707031 L 55.066406 66.195312 C 51.542969 67.734375 48.988281 70.761719 48.03125 74.40625 C 45.730469 73.660156 43.199219 73.566406 40.707031 74.289062 C 39.386719 74.675781 38.628906 76.058594 39.015625 77.378906 C 39.394531 78.699219 40.761719 79.464844 42.105469 79.074219 C 46.0625 77.917969 50.21875 80.203125 51.375 84.160156 C 51.695312 85.246094 52.6875 85.953125 53.769531 85.953125 C 53.78125 85.953125 53.792969 85.949219 53.804688 85.949219 C 53.03125 87.125 52.574219 88.527344 52.574219 90.039062 L 52.574219 94.648438 C 51.753906 94.871094 50.921875 95.019531 50.082031 95.019531 C 44.582031 95.019531 40.113281 90.550781 40.113281 85.054688 C 40.113281 84.957031 40.132812 84.867188 40.144531 84.78125 C 40.171875 84.605469 40.191406 84.429688 40.207031 84.257812 C 40.289062 83.1875 39.683594 82.183594 38.699219 81.765625 C 35.015625 80.195312 32.636719 76.59375 32.636719 72.59375 C 32.636719 71.546875 32.832031 70.519531 33.179688 69.511719 C 34.652344 69.902344 36.148438 70.113281 37.636719 70.113281 C 42.167969 70.113281 46.605469 68.34375 49.953125 64.992188 C 50.929688 64.019531 50.929688 62.445312 49.953125 61.46875 C 48.980469 60.496094 47.40625 60.496094 46.429688 61.46875 C 42.835938 65.066406 37.488281 66.113281 32.800781 64.152344 C 32.800781 64.152344 32.800781 64.152344 32.796875 64.148438 C 28.15625 62.199219 25.160156 57.6875 25.160156 52.660156 C 25.160156 49.941406 26.109375 47.339844 27.769531 45.171875 C 31.835938 45.105469 35.128906 41.789062 35.128906 37.707031 C 35.128906 36.070312 34.585938 34.566406 33.6875 33.332031 C 35.078125 30.503906 37.71875 28.476562 40.863281 27.921875 Z M 27.652344 35.214844 C 29.027344 35.214844 30.144531 36.332031 30.144531 37.707031 C 30.144531 39.078125 29.027344 40.199219 27.652344 40.199219 C 26.277344 40.199219 25.160156 39.078125 25.160156 37.707031 C 25.160156 36.332031 26.277344 35.214844 27.652344 35.214844 Z M 10.210938 56.925781 L 10.210938 40.199219 L 20.636719 40.199219 C 21.085938 41.460938 21.863281 42.558594 22.871094 43.40625 C 21.121094 46.167969 20.175781 49.363281 20.175781 52.660156 C 20.175781 58.824219 23.398438 64.433594 28.558594 67.566406 C 27.957031 69.191406 27.652344 70.875 27.652344 72.59375 C 27.652344 77.992188 30.539062 82.902344 35.136719 85.546875 C 35.257812 89.183594 36.6875 92.488281 38.960938 95.019531 L 34.019531 95.019531 Z M 92.445312 119.941406 C 92.445312 121.3125 91.328125 122.433594 89.953125 122.433594 L 60.046875 122.433594 C 58.671875 122.433594 57.554688 121.3125 57.554688 119.941406 L 57.554688 90.039062 C 57.554688 88.664062 58.671875 87.546875 60.046875 87.546875 L 89.953125 87.546875 C 91.328125 87.546875 92.445312 88.664062 92.445312 90.039062 Z M 142.28125 129.910156 C 140.90625 129.910156 139.789062 128.789062 139.789062 127.417969 C 139.789062 126.042969 140.90625 124.925781 142.28125 124.925781 C 143.65625 124.925781 144.773438 126.042969 144.773438 127.417969 C 144.773438 128.789062 143.65625 129.910156 142.28125 129.910156 Z M 142.28125 129.910156 " clip-rule="nonzero"/></clipPath><clipPath id="13dbace94d"><rect x="0" width="150" y="0" height="150"/></clipPath><clipPath id="da7d525961"><path d="M 0.242188 0 L 33 0 L 33 33 L 0.242188 33 Z M 0.242188 0 " clip-rule="nonzero"/></clipPath><mask id="76c27073ab"><g filter="url(#981581c19b)"><rect x="-15" width="180" fill="#000000" y="-15.45" height="185.399994" fill-opacity="0.62"/></g></mask><clipPath id="c1713ce1ff"><path d="M 0.242188 0 L 32.296875 0 L 32.296875 32 L 0.242188 32 Z M 0.242188 0 " clip-rule="nonzero"/></clipPath><clipPath id="1c84873806"><rect x="0" width="33" y="0" height="33"/></clipPath></defs><g clip-path="url(#f08bed791d)"><g mask="url(#c424830a01)"><g transform="matrix(1, 0, 0, 1, 0.000000000000000056, 4)"><g clip-path="url(#13dbace94d)"><g clip-path="url(#4f5d485ad0)"><g clip-path="url(#1d738a92fa)"><path fill="#e11d48" d="M 92.628906 39.527344 L 92.628906 60.132812 L 115.128906 60.132812 L 115.128906 39.527344 Z M 92.628906 39.527344 " fill-opacity="1" fill-rule="nonzero"/></g></g><g clip-path="url(#31eb266b59)"><g clip-path="url(#f350d2be81)"><path fill="#e11d48" d="M 62.539062 95.019531 L 62.539062 114.957031 L 77.492188 114.957031 L 77.492188 95.019531 Z M 62.539062 95.019531 " fill-opacity="1" fill-rule="nonzero"/></g></g><g clip-path="url(#c07fdeba92)"><g clip-path="url(#f14b6d2e77)"><path fill="#e11d48" d="M 82.476562 95.019531 L 82.476562 114.957031 L 87.460938 114.957031 L 87.460938 95.019531 Z M 82.476562 95.019531 " fill-opacity="1" fill-rule="nonzero"/></g></g><g clip-path="url(#a9c72f4add)"><g clip-path="url(#f6f71ba11c)"><path fill="#e11d48" d="M 0.242188 0.328125 L 0.242188 149.84375 L 149.757812 149.84375 L 149.757812 0.328125 Z M 0.242188 0.328125 " fill-opacity="1" fill-rule="nonzero"/></g></g></g></g></g></g><g clip-path="url(#da7d525961)"><g mask="url(#76c27073ab)"><g transform="matrix(1, 0, 0, 1, 0.000000000000000056, 0)"><g clip-path="url(#1c84873806)"><g clip-path="url(#c1713ce1ff)"><path fill="#e11d48" d="M 30.707031 13.246094 C 29.988281 12.785156 29.742188 11.863281 30.132812 11.101562 C 30.640625 10.113281 30.613281 8.949219 30.058594 7.988281 C 29.503906 7.027344 28.507812 6.421875 27.398438 6.367188 C 26.542969 6.324219 25.871094 5.652344 25.828125 4.796875 C 25.773438 3.6875 25.171875 2.695312 24.207031 2.140625 C 23.246094 1.582031 22.082031 1.554688 21.09375 2.0625 C 20.335938 2.453125 19.414062 2.207031 18.949219 1.488281 C 18.351562 0.558594 17.332031 0 16.222656 0 C 15.109375 0 14.089844 0.558594 13.488281 1.492188 C 13.027344 2.210938 12.105469 2.457031 11.34375 2.066406 C 10.355469 1.558594 9.191406 1.585938 8.230469 2.140625 C 7.269531 2.695312 6.664062 3.6875 6.609375 4.800781 C 6.566406 5.65625 5.894531 6.328125 5.039062 6.371094 C 3.929688 6.421875 2.9375 7.027344 2.382812 7.992188 C 1.824219 8.953125 1.796875 10.117188 2.304688 11.105469 C 2.695312 11.863281 2.449219 12.785156 1.730469 13.25 C 0.800781 13.847656 0.242188 14.867188 0.242188 15.980469 C 0.242188 17.089844 0.800781 18.109375 1.734375 18.710938 C 2.453125 19.171875 2.699219 20.097656 2.308594 20.855469 C 1.800781 21.84375 1.828125 23.007812 2.386719 23.96875 C 2.941406 24.929688 3.933594 25.539062 5.042969 25.589844 C 5.898438 25.632812 6.570312 26.304688 6.613281 27.160156 C 6.667969 28.269531 7.273438 29.265625 8.234375 29.820312 C 9.199219 30.375 10.359375 30.402344 11.347656 29.894531 C 12.109375 29.503906 13.03125 29.75 13.492188 30.472656 C 14.089844 31.402344 15.109375 31.960938 16.222656 31.960938 C 17.332031 31.960938 18.351562 31.402344 18.953125 30.46875 C 19.414062 29.746094 20.339844 29.5 21.097656 29.890625 C 22.085938 30.402344 23.25 30.371094 24.210938 29.816406 C 25.171875 29.261719 25.777344 28.269531 25.832031 27.15625 C 25.875 26.300781 26.546875 25.628906 27.402344 25.585938 C 28.511719 25.535156 29.507812 24.929688 30.0625 23.964844 C 30.617188 23.003906 30.644531 21.839844 30.136719 20.851562 C 29.746094 20.09375 29.992188 19.171875 30.714844 18.707031 C 31.644531 18.109375 32.199219 17.089844 32.199219 15.980469 C 32.199219 14.867188 31.644531 13.847656 30.707031 13.246094 Z M 29.847656 17.367188 C 28.433594 18.277344 27.945312 20.09375 28.714844 21.589844 C 28.976562 22.097656 28.964844 22.675781 28.675781 23.171875 C 28.390625 23.664062 27.898438 23.96875 27.328125 23.992188 C 25.648438 24.074219 24.320312 25.402344 24.238281 27.082031 C 24.210938 27.65625 23.910156 28.148438 23.414062 28.433594 C 22.917969 28.71875 22.339844 28.734375 21.832031 28.472656 C 20.335938 27.703125 18.523438 28.1875 17.613281 29.601562 C 17.300781 30.085938 16.792969 30.359375 16.222656 30.359375 C 15.648438 30.359375 15.144531 30.085938 14.832031 29.605469 C 14.214844 28.640625 13.175781 28.109375 12.105469 28.109375 C 11.601562 28.109375 11.09375 28.226562 10.613281 28.472656 C 10.101562 28.734375 9.527344 28.722656 9.03125 28.4375 C 8.535156 28.148438 8.234375 27.65625 8.207031 27.085938 C 8.128906 25.40625 6.800781 24.078125 5.117188 23.996094 C 4.546875 23.96875 4.054688 23.667969 3.765625 23.171875 C 3.480469 22.675781 3.46875 22.101562 3.730469 21.589844 C 4.5 20.09375 4.011719 18.28125 2.597656 17.371094 C 2.117188 17.058594 1.839844 16.554688 1.839844 15.980469 C 1.839844 15.40625 2.117188 14.902344 2.597656 14.589844 C 4.011719 13.679688 4.5 11.867188 3.726562 10.371094 C 3.464844 9.863281 3.480469 9.285156 3.765625 8.789062 C 4.050781 8.292969 4.542969 7.992188 5.117188 7.964844 C 6.796875 7.886719 8.125 6.558594 8.207031 4.875 C 8.234375 4.304688 8.535156 3.8125 9.027344 3.527344 C 9.527344 3.238281 10.101562 3.226562 10.609375 3.488281 C 12.105469 4.257812 13.921875 3.769531 14.832031 2.355469 C 15.144531 1.875 15.648438 1.597656 16.222656 1.597656 C 16.792969 1.597656 17.300781 1.875 17.609375 2.355469 C 18.519531 3.769531 20.335938 4.253906 21.832031 3.484375 C 22.339844 3.222656 22.914062 3.238281 23.414062 3.523438 C 23.90625 3.808594 24.210938 4.300781 24.234375 4.875 C 24.316406 6.554688 25.644531 7.882812 27.324219 7.964844 C 27.898438 7.992188 28.390625 8.292969 28.675781 8.785156 C 28.960938 9.28125 28.976562 9.859375 28.714844 10.367188 C 27.941406 11.863281 28.429688 13.679688 29.84375 14.589844 C 30.328125 14.902344 30.601562 15.40625 30.601562 15.980469 C 30.601562 16.554688 30.328125 17.058594 29.847656 17.367188 Z M 23.414062 11.652344 L 22.144531 10.386719 C 21.523438 9.761719 20.507812 9.761719 19.886719 10.386719 L 14.625 15.648438 L 12.558594 13.582031 C 11.933594 12.960938 10.921875 12.960938 10.300781 13.582031 L 9.03125 14.847656 C 8.40625 15.472656 8.40625 16.484375 9.03125 17.109375 L 12.929688 21.007812 C 13.398438 21.472656 14.011719 21.707031 14.625 21.707031 C 15.238281 21.707031 15.851562 21.472656 16.316406 21.007812 L 23.414062 13.914062 C 24.035156 13.289062 24.035156 12.277344 23.414062 11.652344 Z M 15.1875 19.878906 C 14.878906 20.191406 14.371094 20.191406 14.058594 19.878906 L 10.160156 15.980469 L 11.425781 14.714844 L 14.058594 17.34375 C 14.371094 17.65625 14.875 17.65625 15.1875 17.34375 L 21.015625 11.515625 L 22.28125 12.785156 Z M 13.609375 26.066406 C 13.496094 26.398438 13.183594 26.609375 12.855469 26.609375 C 12.769531 26.609375 12.679688 26.59375 12.59375 26.5625 C 8.074219 25.015625 5.035156 20.761719 5.035156 15.980469 C 5.035156 10.46875 8.976562 5.828125 14.40625 4.941406 C 14.847656 4.871094 15.253906 5.164062 15.324219 5.597656 C 15.398438 6.035156 15.101562 6.445312 14.664062 6.515625 C 10.011719 7.277344 6.632812 11.253906 6.632812 15.980469 C 6.632812 20.078125 9.238281 23.722656 13.113281 25.050781 C 13.53125 25.195312 13.753906 25.648438 13.609375 26.066406 Z M 16.222656 26.367188 C 16.222656 26.808594 15.863281 27.164062 15.421875 27.164062 C 14.980469 27.164062 14.625 26.808594 14.625 26.367188 C 14.625 25.925781 14.980469 25.566406 15.421875 25.566406 C 15.863281 25.566406 16.222656 25.925781 16.222656 26.367188 Z M 27.40625 15.980469 C 27.40625 21.492188 23.464844 26.132812 18.035156 27.019531 C 17.992188 27.027344 17.945312 27.03125 17.90625 27.03125 C 17.519531 27.03125 17.183594 26.75 17.117188 26.359375 C 17.046875 25.921875 17.34375 25.511719 17.777344 25.441406 C 22.429688 24.683594 25.808594 20.703125 25.808594 15.980469 C 25.808594 11.878906 23.203125 8.234375 19.328125 6.90625 C 18.910156 6.765625 18.691406 6.308594 18.832031 5.890625 C 18.972656 5.476562 19.429688 5.25 19.847656 5.394531 C 24.367188 6.945312 27.40625 11.199219 27.40625 15.980469 Z M 16.222656 5.59375 C 16.222656 5.152344 16.578125 4.792969 17.019531 4.792969 C 17.460938 4.792969 17.820312 5.152344 17.820312 5.59375 C 17.820312 6.035156 17.460938 6.390625 17.019531 6.390625 C 16.578125 6.390625 16.222656 6.035156 16.222656 5.59375 Z M 16.222656 5.59375 " fill-opacity="1" fill-rule="nonzero"/></g></g></g></g></g></svg>