<svg xmlns="http://www.w3.org/2000/svg" xmlns:xlink="http://www.w3.org/1999/xlink" width="1041" zoomAndPan="magnify" viewBox="0 0 780.75 400.499988" height="534" preserveAspectRatio="xMidYMid meet" version="1.0"><defs><g/><clipPath id="5cd44437f4"><path d="M 249.390625 151.210938 L 354.261719 151.210938 L 354.261719 256.082031 L 249.390625 256.082031 Z M 249.390625 151.210938 " clip-rule="nonzero"/></clipPath></defs><g clip-path="url(#5cd44437f4)"><path fill="#e11d48" d="M 299.207031 161.734375 C 300.074219 161.679688 300.945312 161.640625 301.835938 161.640625 C 302.726562 161.640625 303.597656 161.679688 304.464844 161.734375 C 313.433594 162.289062 321.863281 165.644531 328.714844 171.386719 C 329.679688 172.183594 330.605469 173.035156 331.496094 173.925781 C 331.847656 174.277344 332.179688 174.628906 332.53125 175 C 338.832031 181.742188 342.664062 190.226562 343.574219 199.339844 C 343.722656 200.75 343.777344 202.15625 343.777344 203.582031 C 343.777344 203.917969 343.777344 204.269531 343.757812 204.601562 C 343.535156 214.160156 340.128906 223.199219 334.03125 230.460938 C 333.234375 231.425781 332.382812 232.351562 331.496094 233.242188 C 331.144531 233.59375 330.789062 233.925781 330.421875 234.277344 C 323.269531 240.949219 314.171875 244.855469 304.464844 245.449219 C 303.597656 245.503906 302.726562 245.542969 301.835938 245.542969 C 300.964844 245.542969 300.074219 245.503906 299.207031 245.449219 C 289.480469 244.855469 280.382812 240.949219 273.25 234.277344 L 276.976562 230.554688 C 283.125 236.242188 290.90625 239.59375 299.222656 240.1875 C 300.09375 240.242188 300.964844 240.28125 301.855469 240.28125 C 302.742188 240.28125 303.613281 240.242188 304.484375 240.1875 C 312.804688 239.59375 320.582031 236.242188 326.734375 230.554688 C 327.105469 230.222656 327.457031 229.871094 327.808594 229.519531 C 328.699219 228.628906 329.550781 227.683594 330.328125 226.722656 C 335.441406 220.460938 338.3125 212.753906 338.535156 204.582031 C 338.535156 204.25 338.550781 203.917969 338.550781 203.566406 C 338.550781 202.136719 338.476562 200.730469 338.3125 199.320312 C 337.421875 191.617188 334.144531 184.445312 328.828125 178.683594 C 328.492188 178.316406 328.140625 177.964844 327.789062 177.609375 C 326.898438 176.722656 325.957031 175.871094 324.992188 175.089844 C 319.136719 170.3125 312.023438 167.496094 304.464844 166.960938 C 303.597656 166.902344 302.726562 166.867188 301.835938 166.867188 C 300.945312 166.867188 300.074219 166.902344 299.207031 166.960938 C 291.648438 167.496094 284.535156 170.3125 278.679688 175.089844 C 277.714844 175.886719 276.773438 176.722656 275.882812 177.609375 C 275.53125 177.964844 275.195312 178.316406 274.84375 178.683594 C 269.527344 184.445312 266.25 191.617188 265.359375 199.320312 C 265.195312 200.710938 265.121094 202.136719 265.121094 203.566406 C 265.121094 203.898438 265.121094 204.25 265.136719 204.582031 C 265.359375 212.753906 268.230469 220.460938 273.34375 226.722656 L 269.621094 230.445312 C 263.527344 223.164062 260.117188 214.140625 259.894531 204.582031 C 259.894531 204.25 259.875 203.917969 259.875 203.566406 C 259.875 202.136719 259.949219 200.730469 260.082031 199.320312 C 260.988281 190.207031 264.824219 181.722656 271.121094 174.980469 C 271.453125 174.609375 271.808594 174.257812 272.160156 173.90625 C 273.046875 173.015625 273.972656 172.164062 274.9375 171.367188 C 281.828125 165.644531 290.238281 162.289062 299.207031 161.734375 Z M 315.265625 211.695312 C 314.617188 212.769531 313.839844 213.773438 312.933594 214.679688 C 312.582031 215.03125 312.210938 215.363281 311.839844 215.679688 C 309.710938 217.441406 307.191406 218.589844 304.464844 219.050781 L 304.464844 224.367188 C 308.578125 223.847656 312.414062 222.144531 315.5625 219.402344 C 315.933594 219.089844 316.304688 218.738281 316.65625 218.382812 C 317.5625 217.476562 318.359375 216.511719 319.082031 215.476562 C 321.304688 212.269531 322.585938 208.527344 322.769531 204.582031 C 322.789062 204.25 322.789062 203.917969 322.789062 203.566406 C 322.789062 202.121094 322.640625 200.710938 322.363281 199.324219 C 321.640625 195.820312 320.046875 192.578125 317.675781 189.835938 C 317.359375 189.46875 317.007812 189.097656 316.65625 188.746094 C 315.75 187.835938 314.785156 187.039062 313.746094 186.316406 C 310.988281 184.410156 307.820312 183.1875 304.464844 182.78125 C 303.597656 182.667969 302.726562 182.613281 301.835938 182.613281 C 300.945312 182.613281 300.074219 182.667969 299.207031 182.78125 C 295.851562 183.1875 292.683594 184.410156 289.925781 186.316406 C 288.90625 187.023438 287.921875 187.835938 287.015625 188.746094 C 286.664062 189.097656 286.332031 189.46875 285.996094 189.835938 C 283.625 192.5625 282.015625 195.820312 281.308594 199.324219 C 281.03125 200.691406 280.882812 202.121094 280.882812 203.566406 C 280.882812 203.898438 280.882812 204.25 280.902344 204.582031 C 281.089844 208.527344 282.367188 212.269531 284.589844 215.476562 C 285.292969 216.496094 286.109375 217.476562 287.015625 218.382812 C 287.367188 218.738281 287.738281 219.070312 288.109375 219.402344 C 291.257812 222.144531 295.09375 223.847656 299.207031 224.367188 L 299.207031 219.050781 C 296.5 218.589844 293.964844 217.441406 291.832031 215.679688 C 291.445312 215.363281 291.089844 215.03125 290.738281 214.679688 C 289.832031 213.773438 289.054688 212.769531 288.40625 211.695312 C 287.109375 209.566406 286.347656 207.140625 286.183594 204.601562 C 286.164062 204.269531 286.144531 203.933594 286.144531 203.582031 C 286.144531 202.136719 286.347656 200.710938 286.71875 199.339844 C 287.3125 197.246094 288.332031 195.285156 289.738281 193.578125 C 290.054688 193.210938 290.386719 192.839844 290.738281 192.488281 C 291.648438 191.578125 292.648438 190.800781 293.722656 190.152344 C 295.40625 189.132812 297.261719 188.449219 299.207031 188.113281 C 300.058594 187.964844 300.945312 187.890625 301.835938 187.890625 C 302.726562 187.890625 303.597656 187.964844 304.464844 188.113281 C 306.410156 188.449219 308.265625 189.132812 309.949219 190.152344 C 311.023438 190.800781 312.023438 191.578125 312.933594 192.488281 C 313.285156 192.839844 313.617188 193.210938 313.933594 193.578125 C 315.339844 195.285156 316.359375 197.230469 316.953125 199.339844 C 317.324219 200.710938 317.527344 202.121094 317.527344 203.582031 C 317.527344 203.917969 317.507812 204.269531 317.488281 204.601562 C 317.324219 207.140625 316.5625 209.566406 315.265625 211.695312 Z M 301.835938 172.144531 C 300.945312 172.144531 300.074219 172.183594 299.207031 172.257812 C 293.054688 172.757812 287.257812 175.035156 282.421875 178.851562 C 281.441406 179.628906 280.496094 180.464844 279.605469 181.351562 C 279.253906 181.703125 278.921875 182.058594 278.585938 182.425781 C 274.253906 187.167969 271.527344 193.042969 270.695312 199.339844 C 270.511719 200.730469 270.417969 202.15625 270.417969 203.582031 C 270.417969 203.917969 270.417969 204.269531 270.4375 204.601562 C 270.640625 211.363281 272.992188 217.753906 277.125 222.996094 C 277.902344 223.980469 278.734375 224.925781 279.625 225.8125 C 279.976562 226.164062 280.328125 226.5 280.699219 226.832031 C 285.847656 231.539062 292.3125 234.335938 299.222656 234.910156 C 300.09375 234.984375 300.964844 235.019531 301.855469 235.019531 C 302.742188 235.019531 303.613281 234.984375 304.484375 234.910156 C 311.394531 234.335938 317.859375 231.539062 323.011719 226.832031 C 323.378906 226.5 323.734375 226.164062 324.085938 225.8125 C 324.972656 224.925781 325.808594 223.980469 326.585938 222.996094 C 330.714844 217.734375 333.050781 211.363281 333.273438 204.601562 C 333.292969 204.269531 333.292969 203.933594 333.292969 203.582031 C 333.292969 202.15625 333.199219 200.75 333.011719 199.339844 C 332.160156 193.042969 329.4375 187.167969 325.121094 182.425781 L 321.398438 186.152344 C 324.75 189.894531 326.917969 194.449219 327.714844 199.359375 C 327.9375 200.75 328.050781 202.15625 328.050781 203.601562 C 328.050781 203.933594 328.050781 204.285156 328.03125 204.621094 C 327.828125 209.972656 326.03125 215.03125 322.863281 219.273438 C 322.121094 220.273438 321.289062 221.21875 320.398438 222.125 C 320.046875 222.480469 319.695312 222.8125 319.324219 223.144531 C 315.175781 226.867188 310.023438 229.128906 304.503906 229.667969 C 303.632812 229.757812 302.761719 229.796875 301.875 229.796875 C 300.984375 229.796875 300.113281 229.757812 299.242188 229.667969 C 293.722656 229.128906 288.589844 226.867188 284.421875 223.144531 C 284.050781 222.8125 283.699219 222.480469 283.347656 222.125 C 282.441406 221.21875 281.625 220.273438 280.882812 219.273438 C 277.714844 215.03125 275.902344 209.972656 275.714844 204.621094 C 275.695312 204.285156 275.695312 203.953125 275.695312 203.601562 C 275.695312 202.175781 275.808594 200.75 276.03125 199.359375 C 276.828125 194.449219 278.996094 189.910156 282.347656 186.152344 C 282.679688 185.78125 283.015625 185.429688 283.367188 185.078125 C 284.273438 184.167969 285.21875 183.355469 286.21875 182.613281 C 290.015625 179.761719 294.5 178.019531 299.261719 177.535156 C 300.132812 177.445312 301.003906 177.40625 301.890625 177.40625 C 302.78125 177.40625 303.652344 177.445312 304.523438 177.535156 C 309.28125 178 313.765625 179.761719 317.5625 182.613281 L 321.304688 178.871094 C 316.472656 175.054688 310.671875 172.777344 304.523438 172.277344 C 303.597656 172.183594 302.726562 172.144531 301.835938 172.144531 Z M 354.113281 199.359375 C 353.167969 187.429688 348.242188 176.332031 339.960938 167.570312 C 339.628906 167.21875 339.273438 166.847656 338.921875 166.496094 C 338.035156 165.605469 337.109375 164.753906 336.164062 163.921875 C 327.289062 156.234375 316.230469 151.785156 304.464844 151.210938 L 304.464844 156.472656 C 314.839844 157.03125 324.585938 160.9375 332.4375 167.664062 C 333.382812 168.476562 334.308594 169.332031 335.199219 170.21875 C 335.550781 170.570312 335.886719 170.921875 336.238281 171.292969 C 343.515625 179.039062 347.90625 188.835938 348.832031 199.359375 C 348.964844 200.765625 349.019531 202.175781 349.019531 203.601562 C 349.019531 203.933594 349.019531 204.285156 349 204.621094 C 348.777344 215.585938 344.8125 225.941406 337.738281 234.203125 C 336.921875 235.148438 336.070312 236.074219 335.179688 236.964844 C 334.828125 237.316406 334.476562 237.652344 334.105469 238.003906 C 325.957031 245.652344 315.5625 250.117188 304.429688 250.710938 C 303.558594 250.765625 302.6875 250.785156 301.800781 250.785156 C 300.929688 250.785156 300.039062 250.765625 299.167969 250.710938 C 288.035156 250.097656 277.640625 245.652344 269.492188 238.003906 C 269.140625 237.667969 268.769531 237.316406 268.417969 236.964844 C 267.527344 236.074219 266.675781 235.148438 265.859375 234.203125 C 258.839844 225.925781 254.894531 215.570312 254.652344 204.601562 C 254.652344 204.269531 254.632812 203.933594 254.632812 203.582031 C 254.632812 202.15625 254.707031 200.75 254.820312 199.339844 C 255.746094 188.820312 260.136719 179.019531 267.417969 171.277344 C 267.75 170.921875 268.101562 170.554688 268.453125 170.199219 C 269.34375 169.3125 270.269531 168.460938 271.214844 167.644531 C 279.085938 160.921875 288.832031 157.011719 299.1875 156.457031 L 299.1875 151.210938 C 287.441406 151.785156 276.382812 156.234375 267.507812 163.941406 C 266.5625 164.753906 265.636719 165.605469 264.75 166.515625 C 264.398438 166.867188 264.046875 167.21875 263.710938 167.589844 C 255.449219 176.3125 250.503906 187.429688 249.558594 199.359375 C 249.449219 200.765625 249.390625 202.175781 249.390625 203.601562 C 249.390625 203.933594 249.390625 204.285156 249.410156 204.621094 C 249.632812 216.976562 254.132812 228.648438 262.191406 237.929688 C 263.007812 238.875 263.859375 239.800781 264.765625 240.6875 C 265.121094 241.039062 265.472656 241.390625 265.84375 241.726562 C 274.976562 250.378906 286.699219 255.378906 299.242188 255.992188 C 300.113281 256.027344 300.984375 256.046875 301.875 256.046875 C 302.742188 256.046875 303.632812 256.027344 304.503906 255.992188 C 317.027344 255.378906 328.753906 250.378906 337.902344 241.726562 C 338.257812 241.390625 338.625 241.039062 338.980469 240.6875 C 339.867188 239.800781 340.71875 238.875 341.554688 237.929688 C 349.613281 228.648438 354.09375 216.976562 354.335938 204.621094 C 354.335938 204.285156 354.355469 203.953125 354.355469 203.601562 C 354.28125 202.175781 354.226562 200.765625 354.113281 199.359375 Z M 354.113281 199.359375 " fill-opacity="1" fill-rule="nonzero"/></g><g fill="#000000" fill-opacity="1"><g transform="translate(76.425345, 256.430632)"><g><path d="M 166.15625 -95.234375 L 166.15625 -58.34375 C 161.75 -38.132812 152.125 -22.84375 137.28125 -12.46875 C 122.445312 -2.09375 105.890625 3.09375 87.609375 3.09375 C 64.660156 3.09375 45.109375 -5.492188 28.953125 -22.671875 C 12.804688 -39.847656 4.734375 -60.601562 4.734375 -84.9375 C 4.734375 -109.664062 12.632812 -130.550781 28.4375 -147.59375 C 44.25 -164.632812 63.972656 -173.15625 87.609375 -173.15625 C 115.234375 -173.15625 137.082031 -163.46875 153.15625 -144.09375 L 127.8125 -116.265625 C 118.738281 -130.828125 106.09375 -138.109375 89.875 -138.109375 C 77.914062 -138.109375 67.710938 -132.921875 59.265625 -122.546875 C 50.816406 -112.171875 46.59375 -99.632812 46.59375 -84.9375 C 46.59375 -70.5 50.816406 -58.160156 59.265625 -47.921875 C 67.710938 -37.679688 77.914062 -32.5625 89.875 -32.5625 C 99.769531 -32.5625 108.394531 -35.550781 115.75 -41.53125 C 123.101562 -47.507812 126.78125 -55.445312 126.78125 -65.34375 L 87.609375 -65.34375 L 87.609375 -95.234375 Z M 166.15625 -95.234375 "/></g></g></g><g fill="#000000" fill-opacity="1"><g transform="translate(354.363469, 256.430632)"><g><path d="M 12.375 0 L 12.375 -177.28125 L 48.859375 -177.28125 L 48.859375 0 Z M 12.375 0 "/></g></g></g><g fill="#000000" fill-opacity="1"><g transform="translate(405.278599, 256.430632)"><g><path d="M 15.875 -164.703125 C 20.132812 -168.960938 25.21875 -171.09375 31.125 -171.09375 C 37.03125 -171.09375 42.113281 -168.960938 46.375 -164.703125 C 50.632812 -160.441406 52.765625 -155.359375 52.765625 -149.453125 C 52.765625 -143.546875 50.632812 -138.460938 46.375 -134.203125 C 42.113281 -129.941406 37.03125 -127.8125 31.125 -127.8125 C 25.21875 -127.8125 20.132812 -129.941406 15.875 -134.203125 C 11.613281 -138.460938 9.484375 -143.546875 9.484375 -149.453125 C 9.484375 -155.359375 11.613281 -160.441406 15.875 -164.703125 Z M 12.375 -105.75 L 12.375 0 L 48.859375 0 L 48.859375 -105.75 Z M 12.375 -105.75 "/></g></g></g><g fill="#000000" fill-opacity="1"><g transform="translate(457.224395, 256.430632)"><g><path d="M 133.171875 -105.75 L 82.875 -55.25 L 138.109375 0 L 91.109375 0 L 48.859375 -42.265625 L 48.859375 0 L 12.375 0 L 12.375 -177.28125 L 48.859375 -177.28125 L 48.859375 -68.84375 L 85.75 -105.75 Z M 133.171875 -105.75 "/></g></g></g><g fill="#000000" fill-opacity="1"><g transform="translate(580.080315, 256.430632)"><g><path d="M 119.359375 -47.828125 L 42.671875 -47.828125 C 42.671875 -40.398438 45.070312 -34.898438 49.875 -31.328125 C 54.6875 -27.753906 59.910156 -25.96875 65.546875 -25.96875 C 71.460938 -25.96875 76.132812 -26.757812 79.5625 -28.34375 C 83 -29.925781 86.914062 -33.050781 91.3125 -37.71875 L 117.703125 -24.53125 C 106.710938 -6.113281 88.4375 3.09375 62.875 3.09375 C 46.925781 3.09375 33.25 -2.367188 21.84375 -13.296875 C 10.4375 -24.222656 4.734375 -37.378906 4.734375 -52.765625 C 4.734375 -68.160156 10.4375 -81.351562 21.84375 -92.34375 C 33.25 -103.34375 46.925781 -108.84375 62.875 -108.84375 C 79.632812 -108.84375 93.269531 -104 103.78125 -94.3125 C 114.300781 -84.625 119.5625 -70.773438 119.5625 -52.765625 C 119.5625 -50.296875 119.492188 -48.648438 119.359375 -47.828125 Z M 43.703125 -68.03125 L 83.90625 -68.03125 C 83.070312 -73.519531 80.90625 -77.742188 77.40625 -80.703125 C 73.90625 -83.660156 69.40625 -85.140625 63.90625 -85.140625 C 57.851562 -85.140625 53.039062 -83.554688 49.46875 -80.390625 C 45.894531 -77.234375 43.972656 -73.113281 43.703125 -68.03125 Z M 43.703125 -68.03125 "/></g></g></g></svg>